<svg width="16" height="16" viewBox="0 0 16 16" fill="none" xmlns="http://www.w3.org/2000/svg">
<mask id="mask0_263_31323" style="mask-type:alpha" maskUnits="userSpaceOnUse" x="0" y="0" width="16" height="16">
<rect x="0.900391" y="0.5" width="15" height="15" rx="4" fill="white"/>
</mask>
<g mask="url(#mask0_263_31323)">
<path d="M0.900391 3.83333C0.900391 1.99238 2.39277 0.5 4.23372 0.5H12.5671C14.408 0.5 15.9004 1.99238 15.9004 3.83333V12.1667C15.9004 14.0076 14.408 15.5 12.5671 15.5H4.23372C2.39277 15.5 0.900391 14.0076 0.900391 12.1667V3.83333Z" fill="white"/>
<path fill-rule="evenodd" clip-rule="evenodd" d="M12.5671 1.33333H4.23372C2.85301 1.33333 1.73372 2.45262 1.73372 3.83333V12.1667C1.73372 13.5474 2.85301 14.6667 4.23372 14.6667H12.5671C13.9478 14.6667 15.0671 13.5474 15.0671 12.1667V3.83333C15.0671 2.45262 13.9478 1.33333 12.5671 1.33333ZM4.23372 0.5C2.39277 0.5 0.900391 1.99238 0.900391 3.83333V12.1667C0.900391 14.0076 2.39277 15.5 4.23372 15.5H12.5671C14.408 15.5 15.9004 14.0076 15.9004 12.1667V3.83333C15.9004 1.99238 14.408 0.5 12.5671 0.5H4.23372Z" fill="#DAD9D9"/>
<path fill-rule="evenodd" clip-rule="evenodd" d="M9.89785 -0.424416L0.796287 8.67715L0.207031 8.08789L9.30859 -1.01367L9.89785 -0.424416ZM15.614 0.994854L2.20254 14.4063L1.61328 13.8171L15.0247 0.405598L15.614 0.994854ZM9.364 15.3438L16.6557 8.05215L16.0664 7.46289L8.77474 14.7546L9.364 15.3438Z" fill="#DAD9D9"/>
</g>
</svg>
