<svg width="18" height="18" viewBox="0 0 18 18" fill="none" xmlns="http://www.w3.org/2000/svg">
<path d="M3.65625 4.5708H15.2385C15.3163 4.5708 15.3932 4.58789 15.4637 4.62087C15.5341 4.65384 15.5965 4.7019 15.6464 4.76163C15.6962 4.82137 15.7324 4.89133 15.7522 4.96656C15.772 5.0418 15.7751 5.12048 15.7612 5.19703L14.6028 11.572C14.5805 11.6944 14.516 11.8052 14.4205 11.8849C14.325 11.9646 14.2045 12.0083 14.0801 12.0083H5.45709C5.33273 12.0083 5.2123 11.9647 5.1168 11.885C5.0213 11.8053 4.95677 11.6947 4.93446 11.5724L3.25279 2.3505C3.23048 2.22815 3.16595 2.11751 3.07045 2.03784C2.97495 1.95818 2.85453 1.91455 2.73016 1.91455H1.53125" stroke="white" stroke-width="2" stroke-linecap="round" stroke-linejoin="round"/>
<path d="M5.78125 16.7271C6.36805 16.7271 6.84375 16.2514 6.84375 15.6646C6.84375 15.0777 6.36805 14.6021 5.78125 14.6021C5.19445 14.6021 4.71875 15.0777 4.71875 15.6646C4.71875 16.2514 5.19445 16.7271 5.78125 16.7271Z" fill="white"/>
<path d="M13.75 16.7271C14.3368 16.7271 14.8125 16.2514 14.8125 15.6646C14.8125 15.0777 14.3368 14.6021 13.75 14.6021C13.1632 14.6021 12.6875 15.0777 12.6875 15.6646C12.6875 16.2514 13.1632 16.7271 13.75 16.7271Z" fill="white"/>
</svg>
