<svg width="58" height="174" viewBox="0 0 58 174" fill="none" xmlns="http://www.w3.org/2000/svg">
<path d="M58 58L29 58L58 58ZM28.5 49C28.5 37.6782 37.6782 28.5 49 28.5L58 28.5L58 29.5L49 29.5C38.2304 29.5 29.5 38.2304 29.5 49L28.5 49ZM58 29L58 58L58 29ZM28.5 58L28.5 49C28.5 37.6782 37.6782 28.5 49 28.5L49 29.5C38.2304 29.5 29.5 38.2304 29.5 49L29.5 58L28.5 58Z" fill="#98A2B3"/>
<path d="M0 58H29H0ZM29.5 67C29.5 78.3218 20.3218 87.5 9 87.5H0V86.5H9C19.7696 86.5 28.5 77.7696 28.5 67H29.5ZM0 87V58V87ZM29.5 58V67C29.5 78.3218 20.3218 87.5 9 87.5V86.5C19.7696 86.5 28.5 77.7696 28.5 67V58H29.5Z" fill="#98A2B3"/>
<path d="M0 86.5H9C20.3218 86.5 29.5 95.6782 29.5 107H28.5C28.5 96.2304 19.7696 87.5 9 87.5H0V86.5ZM29 116H0H29ZM0 116V87V116ZM9 86.5C20.3218 86.5 29.5 95.6782 29.5 107V116H28.5V107C28.5 96.2304 19.7696 87.5 9 87.5V86.5Z" fill="#98A2B3"/>
<path d="M58 145.5L49 145.5C37.6782 145.5 28.5 136.322 28.5 125L29.5 125C29.5 135.77 38.2304 144.5 49 144.5L58 144.5L58 145.5ZM29 116L58 116L29 116ZM58 116L58 145L58 116ZM49 145.5C37.6782 145.5 28.5 136.322 28.5 125L28.5 116L29.5 116L29.5 125C29.5 135.77 38.2304 144.5 49 144.5L49 145.5Z" fill="#98A2B3"/>
</svg>
