<svg width="58" height="117" viewBox="0 0 58 117" fill="none" xmlns="http://www.w3.org/2000/svg">
<path fill-rule="evenodd" clip-rule="evenodd" d="M28.5 20.5C28.5 9.1782 37.6782 0 49 0H58V1H49C38.2304 1 29.5 9.7305 29.5 20.5V29.5V38.5C29.5 48.2688 22.6672 56.4415 13.5202 58.5C22.6672 60.5585 29.5 68.7313 29.5 78.5001V87.5V87.5001V96.5C29.5 107.269 38.2304 116 49 116H58V117H49C37.6782 117 28.5 107.822 28.5 96.5V87.5001V87.5V78.5001C28.5 67.7305 19.7696 59 9 59H0V58H9C19.7696 58 28.5 49.2696 28.5 38.5V29.5V20.5Z" fill="#98A2B3"/>
</svg>
