<?xml version="1.0" encoding="utf-8"?>
<!-- Generator: Adobe Illustrator 27.0.0, SVG Export Plug-In . SVG Version: 6.00 Build 0)  -->
<svg version="1.1" id="_x34_pcs" xmlns="http://www.w3.org/2000/svg" xmlns:xlink="http://www.w3.org/1999/xlink" x="0px" y="0px"
	 viewBox="0 0 58 175" enable-background="new 0 0 58 175" xml:space="preserve">
<path fill-rule="evenodd" clip-rule="evenodd" fill="#98A2B2" d="M48.713,0.101c-11.322,0-20.5,9.178-20.5,20.5v9v29v-1v10
	c0,10.77-8.73,19.5-19.5,19.5h-9v1h9c10.77,0,19.5,8.73,19.5,19.5v8v9v21v9c0,11.322,9.178,20.5,20.5,20.5h9v-1h-9
	c-10.77,0-19.5-8.73-19.5-19.5v-9v-21v-9v-8c0-9.769-6.833-17.941-15.98-20c9.147-2.059,15.98-10.231,15.98-20v-10v1v-29v-9
	c0-10.769,8.73-19.5,19.5-19.5h9v-1H48.713z"/>
</svg>
