<svg width="111" height="111" viewBox="0 0 111 111" fill="none" xmlns="http://www.w3.org/2000/svg">
<path d="M29.8507 34.0935C27.1921 34.0935 25.0352 36.2945 25.0352 39.0073C25.0352 40.5531 25.7475 42.0068 26.9614 42.9383L48.7917 59.6452C49.9354 60.5154 51.5004 60.5154 52.6441 59.6452L58.4027 55.2433C60.8004 49.1215 66.3984 44.6684 73.08 44.003L74.4745 42.9383C75.6884 42.0068 76.4007 40.5531 76.4007 39.0073C76.4007 36.2945 74.2437 34.0935 71.5852 34.0935H29.8507ZM54.5703 62.2659C52.283 64.0165 49.1529 64.0165 46.8655 62.2659L25.0352 45.559V66.8521C25.0352 70.4658 27.9144 73.4039 31.4558 73.4039H61.1716C58.6535 70.2918 57.1386 66.2891 57.1386 61.9383C57.1386 61.3651 57.1687 60.802 57.2189 60.239L54.5703 62.2659ZM89.2421 61.9383C89.2421 58.0287 87.72 54.2792 85.0108 51.5146C82.3015 48.7501 78.627 47.197 74.7955 47.197C70.964 47.197 67.2895 48.7501 64.5802 51.5146C61.871 54.2792 60.3489 58.0287 60.3489 61.9383C60.3489 65.848 61.871 69.5975 64.5802 72.3621C67.2895 75.1266 70.964 76.6797 74.7955 76.6797C78.627 76.6797 82.3015 75.1266 85.0108 72.3621C87.72 69.5975 89.2421 65.848 89.2421 61.9383ZM81.5473 57.5057C82.1693 58.1404 82.1693 59.1846 81.5473 59.8193L74.324 67.1899C73.702 67.8246 72.6787 67.8246 72.0567 67.1899L68.0437 63.0951C67.4217 62.4604 67.4217 61.4162 68.0437 60.7815C68.6657 60.1468 69.689 60.1468 70.3111 60.7815L73.1903 63.7196L79.28 57.5057C79.902 56.871 80.9253 56.871 81.5473 57.5057Z" fill="#1D2939"/>
</svg>
