<svg width="14" height="14" viewBox="0 0 14 14" fill="none" xmlns="http://www.w3.org/2000/svg">
<path d="M13.4172 2.3333V5.8333M13.4172 5.8333H9.91725M13.4172 5.8333L10.7164 3.28997C9.91177 2.48481 8.86724 1.96299 7.74022 1.80313C6.61321 1.64328 5.46476 1.85404 4.46795 2.40367C3.47114 2.9533 2.67998 3.81202 2.21367 4.85042C1.74736 5.88883 1.63118 7.05066 1.88263 8.16083C2.13408 9.27101 2.73954 10.2694 3.60777 11.0055C4.476 11.7417 5.55997 12.1757 6.69633 12.2421C7.83268 12.3086 8.95986 12.004 9.90801 11.3741C10.8562 10.7442 11.5739 9.82325 11.9531 8.74997" stroke="#1D2939" stroke-width="2" stroke-linecap="round" stroke-linejoin="round"/>
</svg>
