<svg width="420" height="89" viewBox="0 0 420 89" fill="none" xmlns="http://www.w3.org/2000/svg">
<rect x="0.5" y="0.5" width="419" height="88.0002" rx="11.5" stroke="#BBBBBB"/>
<mask id="mask0_609_30266" style="mask-type:alpha" maskUnits="userSpaceOnUse" x="0" y="0" width="420" height="90">
<rect width="420" height="89.0002" rx="12" fill="#D9D9D9"/>
</mask>
<g mask="url(#mask0_609_30266)">
<path fill-rule="evenodd" clip-rule="evenodd" d="M480.96 -187.264C481.173 -187.441 481.173 -187.726 480.96 -187.903C480.748 -188.079 480.403 -188.079 480.191 -187.903L240.191 11.0973C240.169 11.1155 240.149 11.135 240.131 11.1554L0.159433 210.132C-0.0531487 210.308 -0.0531401 210.594 0.159433 210.77C0.372007 210.947 0.716648 210.947 0.92923 210.77L240.929 11.7705C240.951 11.7522 240.971 11.7328 240.988 11.7124L480.96 -187.264ZM240.929 -183.229C241.142 -183.406 241.142 -183.691 240.929 -183.868C240.717 -184.044 240.372 -184.044 240.159 -183.868L0.159433 15.1324C-0.0531487 15.3087 -0.0531401 15.5945 0.159433 15.7707C0.372007 15.947 0.716648 15.947 0.92923 15.7707L240.929 -183.229ZM240.929 -170.229C241.142 -170.406 241.142 -170.691 240.929 -170.868C240.717 -171.044 240.372 -171.044 240.159 -170.868L0.159433 28.1324C-0.0531487 28.3087 -0.0531401 28.5945 0.159433 28.7707C0.372007 28.947 0.716648 28.947 0.92923 28.7707L240.929 -170.229ZM240.929 -157.868C241.142 -157.691 241.142 -157.406 240.929 -157.229L0.92923 41.7707C0.716648 41.947 0.372007 41.947 0.159433 41.7707C-0.0531401 41.5945 -0.0531487 41.3087 0.159433 41.1324L240.159 -157.868C240.372 -158.044 240.717 -158.044 240.929 -157.868ZM240.929 -144.229C241.142 -144.406 241.142 -144.691 240.929 -144.868C240.717 -145.044 240.372 -145.044 240.159 -144.868L0.159433 54.1324C-0.0531487 54.3087 -0.0531401 54.5945 0.159433 54.7707C0.372007 54.947 0.716648 54.947 0.92923 54.7707L240.929 -144.229ZM240.929 -131.868C241.142 -131.691 241.142 -131.406 240.929 -131.229L0.92923 67.7707C0.716648 67.947 0.372007 67.947 0.159433 67.7707C-0.0531401 67.5945 -0.0531487 67.3087 0.159433 67.1324L240.159 -131.868C240.372 -132.044 240.717 -132.044 240.929 -131.868ZM240.929 -118.23C241.142 -118.406 241.142 -118.692 240.929 -118.868C240.717 -119.044 240.372 -119.044 240.159 -118.868L0.159433 80.1322C-0.0531487 80.3084 -0.0531401 80.5942 0.159433 80.7704C0.372007 80.9467 0.716648 80.9467 0.92923 80.7704L240.929 -118.23ZM240.929 -105.868C241.142 -105.692 241.142 -105.406 240.929 -105.23L0.92923 93.7704C0.716648 93.9467 0.372007 93.9467 0.159433 93.7704C-0.0531401 93.5942 -0.0531487 93.3084 0.159433 93.1322L240.159 -105.868C240.372 -106.044 240.717 -106.044 240.929 -105.868ZM240.929 -92.2295C241.142 -92.4058 241.142 -92.6916 240.929 -92.8678C240.717 -93.0441 240.372 -93.0441 240.159 -92.8678L0.159433 106.132C-0.0531487 106.308 -0.0531401 106.594 0.159433 106.77C0.372007 106.947 0.716648 106.947 0.92923 106.77L240.929 -92.2295ZM240.929 -79.8678C241.142 -79.6916 241.142 -79.4058 240.929 -79.2295L0.92923 119.77C0.716648 119.947 0.372007 119.947 0.159433 119.77C-0.0531401 119.594 -0.0531487 119.308 0.159433 119.132L240.159 -79.8678C240.372 -80.0441 240.717 -80.0441 240.929 -79.8678ZM240.929 -66.2295C241.142 -66.4058 241.142 -66.6916 240.929 -66.8678C240.717 -67.0441 240.372 -67.0441 240.159 -66.8678L0.159433 132.132C-0.0531487 132.308 -0.0531401 132.594 0.159433 132.77C0.372007 132.947 0.716648 132.947 0.92923 132.77L240.929 -66.2295ZM240.929 -53.8678C241.142 -53.6916 241.142 -53.4058 240.929 -53.2295L0.92923 145.77C0.716648 145.947 0.372007 145.947 0.159433 145.77C-0.0531401 145.594 -0.0531487 145.308 0.159433 145.132L240.159 -53.8678C240.372 -54.0441 240.717 -54.0441 240.929 -53.8678ZM240.929 -40.2295C241.142 -40.4058 241.142 -40.6916 240.929 -40.8678C240.717 -41.0441 240.372 -41.0441 240.159 -40.8678L0.159433 158.132C-0.0531487 158.308 -0.0531401 158.594 0.159433 158.77C0.372007 158.947 0.716648 158.947 0.92923 158.77L240.929 -40.2295ZM240.929 -27.8678C241.142 -27.6916 241.142 -27.4058 240.929 -27.2295L0.92923 171.77C0.716648 171.947 0.372007 171.947 0.159433 171.77C-0.0531401 171.594 -0.0531487 171.308 0.159433 171.132L240.159 -27.8678C240.372 -28.0441 240.717 -28.0441 240.929 -27.8678ZM240.929 -14.2295C241.142 -14.4058 241.142 -14.6916 240.929 -14.8678C240.717 -15.0441 240.372 -15.0441 240.159 -14.8678L0.159433 184.132C-0.0531487 184.308 -0.0531401 184.594 0.159433 184.77C0.372007 184.947 0.716648 184.947 0.92923 184.77L240.929 -14.2295ZM240.929 -1.86781C241.142 -1.69156 241.142 -1.40579 240.929 -1.22954L0.92923 197.77C0.716648 197.947 0.372007 197.947 0.159433 197.77C-0.0531401 197.594 -0.0531487 197.308 0.159433 197.132L240.159 -1.86781C240.372 -2.04408 240.717 -2.04408 240.929 -1.86781ZM240.955 24.7472C240.967 24.7359 240.978 24.7243 240.988 24.7124L480.96 -174.264C481.173 -174.441 481.173 -174.726 480.96 -174.903C480.748 -175.079 480.403 -175.079 480.191 -174.903L240.191 24.0973C240.169 24.1155 240.149 24.135 240.131 24.1554L0.159433 223.132C-0.0531487 223.308 -0.0531401 223.594 0.159433 223.77C0.372007 223.947 0.716648 223.947 0.92923 223.77L240.929 24.7705C240.938 24.7629 240.947 24.7551 240.955 24.7472ZM240.988 37.7124C240.971 37.7328 240.951 37.7522 240.929 37.7705L0.92923 236.77C0.716648 236.947 0.372007 236.947 0.159433 236.77C-0.0531401 236.594 -0.0531487 236.308 0.159433 236.132L240.131 37.1554C240.14 37.1456 240.149 37.136 240.158 37.1266L240.169 37.1164L240.177 37.1088L240.185 37.1021L240.191 37.0973L480.191 -161.903C480.403 -162.079 480.748 -162.079 480.96 -161.903C481.173 -161.726 481.173 -161.441 480.96 -161.264L240.988 37.7124ZM240.956 50.7464L240.966 50.737C240.97 50.7329 240.974 50.7287 240.978 50.7245L240.988 50.7124L480.96 -148.264C481.173 -148.441 481.173 -148.726 480.96 -148.903C480.748 -149.079 480.403 -149.079 480.191 -148.903L240.191 50.0973C240.169 50.1155 240.149 50.135 240.131 50.1554L0.159433 249.132C-0.0531487 249.308 -0.0531401 249.594 0.159433 249.77C0.372007 249.947 0.716648 249.947 0.92923 249.77L240.929 50.7705C240.934 50.7661 240.94 50.7617 240.945 50.7572L240.956 50.7464ZM240.978 63.724L240.97 63.7322C240.958 63.7454 240.944 63.7582 240.929 63.7705L0.92923 262.77C0.716648 262.947 0.372007 262.947 0.159433 262.77C-0.0531401 262.594 -0.0531487 262.308 0.159433 262.132L240.131 63.1554C240.149 63.135 240.169 63.1155 240.191 63.0973L480.191 -135.903C480.403 -136.079 480.748 -136.079 480.96 -135.903C481.173 -135.726 481.173 -135.441 480.96 -135.264L240.988 63.7124L240.978 63.724ZM240.929 76.7705C240.951 76.7522 240.971 76.7328 240.988 76.7124L480.96 -122.264C481.173 -122.441 481.173 -122.726 480.96 -122.903C480.748 -123.079 480.403 -123.079 480.191 -122.903L240.191 76.0973C240.169 76.1155 240.149 76.1349 240.131 76.1553L0.159433 275.132C-0.0531487 275.308 -0.0531401 275.594 0.159433 275.77C0.372007 275.947 0.716648 275.947 0.92923 275.77L240.929 76.7705ZM480.96 -109.264C481.173 -109.441 481.173 -109.726 480.96 -109.903C480.748 -110.079 480.403 -110.079 480.191 -109.903L240.191 89.0973C239.978 89.2735 239.978 89.5593 240.191 89.7356C240.403 89.9118 240.748 89.9118 240.961 89.7356L480.96 -109.264ZM480.96 -96.9027C481.173 -96.7265 481.173 -96.4407 480.96 -96.2644L240.961 102.736C240.748 102.912 240.403 102.912 240.191 102.736C239.978 102.559 239.978 102.274 240.191 102.097L480.191 -96.9027C480.403 -97.079 480.748 -97.079 480.96 -96.9027ZM480.96 -83.2644C481.173 -83.4407 481.173 -83.7265 480.96 -83.9027C480.748 -84.079 480.403 -84.079 480.191 -83.9027L240.191 115.097C239.978 115.274 239.978 115.559 240.191 115.736C240.403 115.912 240.748 115.912 240.961 115.736L480.96 -83.2644ZM480.96 -70.9027C481.173 -70.7265 481.173 -70.4407 480.96 -70.2644L240.961 128.736C240.748 128.912 240.403 128.912 240.191 128.736C239.978 128.559 239.978 128.274 240.191 128.097L480.191 -70.9027C480.403 -71.079 480.748 -71.079 480.96 -70.9027ZM480.96 -57.2644C481.173 -57.4407 481.173 -57.7265 480.96 -57.9027C480.748 -58.079 480.403 -58.079 480.191 -57.9027L240.191 141.097C239.978 141.274 239.978 141.559 240.191 141.736C240.403 141.912 240.748 141.912 240.961 141.736L480.96 -57.2644ZM480.96 -44.9027C481.173 -44.7265 481.173 -44.4407 480.96 -44.2644L240.961 154.736C240.748 154.912 240.403 154.912 240.191 154.736C239.978 154.559 239.978 154.274 240.191 154.097L480.191 -44.9027C480.403 -45.079 480.748 -45.079 480.96 -44.9027ZM480.96 -31.2647C481.173 -31.4409 481.173 -31.7267 480.96 -31.903C480.748 -32.0792 480.403 -32.0792 480.191 -31.903L240.191 167.097C239.978 167.273 239.978 167.559 240.191 167.735C240.403 167.912 240.748 167.912 240.961 167.735L480.96 -31.2647ZM480.96 -18.903C481.173 -18.7267 481.173 -18.4409 480.96 -18.2647L240.961 180.735C240.748 180.912 240.403 180.912 240.191 180.735C239.978 180.559 239.978 180.273 240.191 180.097L480.191 -18.903C480.403 -19.0792 480.748 -19.0792 480.96 -18.903ZM480.96 -5.26468C481.173 -5.44093 481.173 -5.7267 480.96 -5.90295C480.748 -6.07922 480.403 -6.07922 480.191 -5.90295L240.191 193.097C239.978 193.273 239.978 193.559 240.191 193.735C240.403 193.912 240.748 193.912 240.961 193.735L480.96 -5.26468ZM480.96 7.09705C481.173 7.2733 481.173 7.55907 480.96 7.73532L240.961 206.735C240.748 206.912 240.403 206.912 240.191 206.735C239.978 206.559 239.978 206.273 240.191 206.097L480.191 7.09705C480.403 6.92078 480.748 6.92078 480.96 7.09705ZM480.96 20.7353C481.173 20.5591 481.173 20.2733 480.96 20.097C480.748 19.9208 480.403 19.9208 480.191 20.097L240.191 219.097C239.978 219.273 239.978 219.559 240.191 219.735C240.403 219.912 240.748 219.912 240.961 219.735L480.96 20.7353Z" fill="#BBBBBB"/>
</g>
</svg>
