<svg width="979" height="3" viewBox="0 0 979 3" fill="none" xmlns="http://www.w3.org/2000/svg">
<path d="M1.08132 2.65914C0.836056 2.65914 0.625592 2.5713 0.449929 2.39564C0.274266 2.21998 0.186435 2.00951 0.186435 1.76425C0.186435 1.51898 0.274266 1.30852 0.449929 1.13286C0.625592 0.957194 0.836056 0.869363 1.08132 0.869363C1.32659 0.869363 1.53705 0.957194 1.71271 1.13286C1.88838 1.30852 1.97621 1.51898 1.97621 1.76425C1.97621 1.92665 1.93478 2.0758 1.85192 2.21169C1.77237 2.34758 1.66465 2.45696 1.52876 2.53982C1.39619 2.61936 1.24704 2.65914 1.08132 2.65914ZM11.9368 2.65914C11.6915 2.65914 11.4811 2.5713 11.3054 2.39564C11.1297 2.21998 11.0419 2.00951 11.0419 1.76425C11.0419 1.51898 11.1297 1.30852 11.3054 1.13286C11.4811 0.957194 11.6915 0.869363 11.9368 0.869363C12.1821 0.869363 12.3925 0.957194 12.5682 1.13286C12.7438 1.30852 12.8317 1.51898 12.8317 1.76425C12.8317 1.92665 12.7902 2.0758 12.7074 2.21169C12.6278 2.34758 12.5201 2.45696 12.3842 2.53982C12.2517 2.61936 12.1025 2.65914 11.9368 2.65914ZM22.7923 2.65914C22.547 2.65914 22.3365 2.5713 22.1609 2.39564C21.9852 2.21998 21.8974 2.00951 21.8974 1.76425C21.8974 1.51898 21.9852 1.30852 22.1609 1.13286C22.3365 0.957194 22.547 0.869363 22.7923 0.869363C23.0375 0.869363 23.248 0.957194 23.4237 1.13286C23.5993 1.30852 23.6871 1.51898 23.6871 1.76425C23.6871 1.92665 23.6457 2.0758 23.5629 2.21169C23.4833 2.34758 23.3756 2.45696 23.2397 2.53982C23.1071 2.61936 22.958 2.65914 22.7923 2.65914ZM33.6477 2.65914C33.4025 2.65914 33.192 2.5713 33.0163 2.39564C32.8407 2.21998 32.7528 2.00951 32.7528 1.76425C32.7528 1.51898 32.8407 1.30852 33.0163 1.13286C33.192 0.957194 33.4025 0.869363 33.6477 0.869363C33.893 0.869363 34.1035 0.957194 34.2791 1.13286C34.4548 1.30852 34.5426 1.51898 34.5426 1.76425C34.5426 1.92665 34.5012 2.0758 34.4183 2.21169C34.3388 2.34758 34.2311 2.45696 34.0952 2.53982C33.9626 2.61936 33.8134 2.65914 33.6477 2.65914ZM44.5032 2.65914C44.2579 2.65914 44.0475 2.5713 43.8718 2.39564C43.6961 2.21998 43.6083 2.00951 43.6083 1.76425C43.6083 1.51898 43.6961 1.30852 43.8718 1.13286C44.0475 0.957194 44.2579 0.869363 44.5032 0.869363C44.7485 0.869363 44.9589 0.957194 45.1346 1.13286C45.3103 1.30852 45.3981 1.51898 45.3981 1.76425C45.3981 1.92665 45.3567 2.0758 45.2738 2.21169C45.1942 2.34758 45.0865 2.45696 44.9506 2.53982C44.8181 2.61936 44.6689 2.65914 44.5032 2.65914ZM55.3587 2.65914C55.1134 2.65914 54.9029 2.5713 54.7273 2.39564C54.5516 2.21998 54.4638 2.00951 54.4638 1.76425C54.4638 1.51898 54.5516 1.30852 54.7273 1.13286C54.9029 0.957194 55.1134 0.869363 55.3587 0.869363C55.6039 0.869363 55.8144 0.957194 55.9901 1.13286C56.1657 1.30852 56.2536 1.51898 56.2536 1.76425C56.2536 1.92665 56.2121 2.0758 56.1293 2.21169C56.0497 2.34758 55.942 2.45696 55.8061 2.53982C55.6735 2.61936 55.5244 2.65914 55.3587 2.65914ZM66.2141 2.65914C65.9689 2.65914 65.7584 2.5713 65.5827 2.39564C65.4071 2.21998 65.3192 2.00951 65.3192 1.76425C65.3192 1.51898 65.4071 1.30852 65.5827 1.13286C65.7584 0.957194 65.9689 0.869363 66.2141 0.869363C66.4594 0.869363 66.6699 0.957194 66.8455 1.13286C67.0212 1.30852 67.109 1.51898 67.109 1.76425C67.109 1.92665 67.0676 2.0758 66.9847 2.21169C66.9052 2.34758 66.7975 2.45696 66.6616 2.53982C66.529 2.61936 66.3799 2.65914 66.2141 2.65914ZM77.0696 2.65914C76.8243 2.65914 76.6139 2.5713 76.4382 2.39564C76.2625 2.21998 76.1747 2.00951 76.1747 1.76425C76.1747 1.51898 76.2625 1.30852 76.4382 1.13286C76.6139 0.957194 76.8243 0.869363 77.0696 0.869363C77.3149 0.869363 77.5253 0.957194 77.701 1.13286C77.8767 1.30852 77.9645 1.51898 77.9645 1.76425C77.9645 1.92665 77.9231 2.0758 77.8402 2.21169C77.7607 2.34758 77.6529 2.45696 77.517 2.53982C77.3845 2.61936 77.2353 2.65914 77.0696 2.65914ZM87.9251 2.65914C87.6798 2.65914 87.4693 2.5713 87.2937 2.39564C87.118 2.21998 87.0302 2.00951 87.0302 1.76425C87.0302 1.51898 87.118 1.30852 87.2937 1.13286C87.4693 0.957194 87.6798 0.869363 87.9251 0.869363C88.1703 0.869363 88.3808 0.957194 88.5565 1.13286C88.7321 1.30852 88.82 1.51898 88.82 1.76425C88.82 1.92665 88.7785 2.0758 88.6957 2.21169C88.6161 2.34758 88.5084 2.45696 88.3725 2.53982C88.2399 2.61936 88.0908 2.65914 87.9251 2.65914ZM98.7805 2.65914C98.5353 2.65914 98.3248 2.5713 98.1491 2.39564C97.9735 2.21998 97.8857 2.00951 97.8857 1.76425C97.8857 1.51898 97.9735 1.30852 98.1491 1.13286C98.3248 0.957194 98.5353 0.869363 98.7805 0.869363C99.0258 0.869363 99.2363 0.957194 99.4119 1.13286C99.5876 1.30852 99.6754 1.51898 99.6754 1.76425C99.6754 1.92665 99.634 2.0758 99.5511 2.21169C99.4716 2.34758 99.3639 2.45696 99.228 2.53982C99.0954 2.61936 98.9463 2.65914 98.7805 2.65914ZM109.636 2.65914C109.391 2.65914 109.18 2.5713 109.005 2.39564C108.829 2.21998 108.741 2.00951 108.741 1.76425C108.741 1.51898 108.829 1.30852 109.005 1.13286C109.18 0.957194 109.391 0.869363 109.636 0.869363C109.881 0.869363 110.092 0.957194 110.267 1.13286C110.443 1.30852 110.531 1.51898 110.531 1.76425C110.531 1.92665 110.489 2.0758 110.407 2.21169C110.327 2.34758 110.219 2.45696 110.083 2.53982C109.951 2.61936 109.802 2.65914 109.636 2.65914ZM120.491 2.65914C120.246 2.65914 120.036 2.5713 119.86 2.39564C119.684 2.21998 119.597 2.00951 119.597 1.76425C119.597 1.51898 119.684 1.30852 119.86 1.13286C120.036 0.957194 120.246 0.869363 120.491 0.869363C120.737 0.869363 120.947 0.957194 121.123 1.13286C121.299 1.30852 121.386 1.51898 121.386 1.76425C121.386 1.92665 121.345 2.0758 121.262 2.21169C121.183 2.34758 121.075 2.45696 120.939 2.53982C120.806 2.61936 120.657 2.65914 120.491 2.65914ZM131.347 2.65914C131.102 2.65914 130.891 2.5713 130.716 2.39564C130.54 2.21998 130.452 2.00951 130.452 1.76425C130.452 1.51898 130.54 1.30852 130.716 1.13286C130.891 0.957194 131.102 0.869363 131.347 0.869363C131.592 0.869363 131.803 0.957194 131.978 1.13286C132.154 1.30852 132.242 1.51898 132.242 1.76425C132.242 1.92665 132.2 2.0758 132.118 2.21169C132.038 2.34758 131.93 2.45696 131.794 2.53982C131.662 2.61936 131.513 2.65914 131.347 2.65914ZM142.202 2.65914C141.957 2.65914 141.747 2.5713 141.571 2.39564C141.395 2.21998 141.308 2.00951 141.308 1.76425C141.308 1.51898 141.395 1.30852 141.571 1.13286C141.747 0.957194 141.957 0.869363 142.202 0.869363C142.448 0.869363 142.658 0.957194 142.834 1.13286C143.009 1.30852 143.097 1.51898 143.097 1.76425C143.097 1.92665 143.056 2.0758 142.973 2.21169C142.893 2.34758 142.786 2.45696 142.65 2.53982C142.517 2.61936 142.368 2.65914 142.202 2.65914ZM153.058 2.65914C152.813 2.65914 152.602 2.5713 152.426 2.39564C152.251 2.21998 152.163 2.00951 152.163 1.76425C152.163 1.51898 152.251 1.30852 152.426 1.13286C152.602 0.957194 152.813 0.869363 153.058 0.869363C153.303 0.869363 153.514 0.957194 153.689 1.13286C153.865 1.30852 153.953 1.51898 153.953 1.76425C153.953 1.92665 153.911 2.0758 153.828 2.21169C153.749 2.34758 153.641 2.45696 153.505 2.53982C153.373 2.61936 153.224 2.65914 153.058 2.65914ZM163.913 2.65914C163.668 2.65914 163.458 2.5713 163.282 2.39564C163.106 2.21998 163.018 2.00951 163.018 1.76425C163.018 1.51898 163.106 1.30852 163.282 1.13286C163.458 0.957194 163.668 0.869363 163.913 0.869363C164.159 0.869363 164.369 0.957194 164.545 1.13286C164.72 1.30852 164.808 1.51898 164.808 1.76425C164.808 1.92665 164.767 2.0758 164.684 2.21169C164.604 2.34758 164.497 2.45696 164.361 2.53982C164.228 2.61936 164.079 2.65914 163.913 2.65914ZM174.769 2.65914C174.524 2.65914 174.313 2.5713 174.137 2.39564C173.962 2.21998 173.874 2.00951 173.874 1.76425C173.874 1.51898 173.962 1.30852 174.137 1.13286C174.313 0.957194 174.524 0.869363 174.769 0.869363C175.014 0.869363 175.225 0.957194 175.4 1.13286C175.576 1.30852 175.664 1.51898 175.664 1.76425C175.664 1.92665 175.622 2.0758 175.539 2.21169C175.46 2.34758 175.352 2.45696 175.216 2.53982C175.084 2.61936 174.935 2.65914 174.769 2.65914ZM185.624 2.65914C185.379 2.65914 185.169 2.5713 184.993 2.39564C184.817 2.21998 184.729 2.00951 184.729 1.76425C184.729 1.51898 184.817 1.30852 184.993 1.13286C185.169 0.957194 185.379 0.869363 185.624 0.869363C185.87 0.869363 186.08 0.957194 186.256 1.13286C186.431 1.30852 186.519 1.51898 186.519 1.76425C186.519 1.92665 186.478 2.0758 186.395 2.21169C186.315 2.34758 186.208 2.45696 186.072 2.53982C185.939 2.61936 185.79 2.65914 185.624 2.65914ZM196.48 2.65914C196.234 2.65914 196.024 2.5713 195.848 2.39564C195.673 2.21998 195.585 2.00951 195.585 1.76425C195.585 1.51898 195.673 1.30852 195.848 1.13286C196.024 0.957194 196.234 0.869363 196.48 0.869363C196.725 0.869363 196.935 0.957194 197.111 1.13286C197.287 1.30852 197.375 1.51898 197.375 1.76425C197.375 1.92665 197.333 2.0758 197.25 2.21169C197.171 2.34758 197.063 2.45696 196.927 2.53982C196.795 2.61936 196.645 2.65914 196.48 2.65914ZM207.335 2.65914C207.09 2.65914 206.879 2.5713 206.704 2.39564C206.528 2.21998 206.44 2.00951 206.44 1.76425C206.44 1.51898 206.528 1.30852 206.704 1.13286C206.879 0.957194 207.09 0.869363 207.335 0.869363C207.58 0.869363 207.791 0.957194 207.967 1.13286C208.142 1.30852 208.23 1.51898 208.23 1.76425C208.23 1.92665 208.189 2.0758 208.106 2.21169C208.026 2.34758 207.919 2.45696 207.783 2.53982C207.65 2.61936 207.501 2.65914 207.335 2.65914ZM218.191 2.65914C217.945 2.65914 217.735 2.5713 217.559 2.39564C217.384 2.21998 217.296 2.00951 217.296 1.76425C217.296 1.51898 217.384 1.30852 217.559 1.13286C217.735 0.957194 217.945 0.869363 218.191 0.869363C218.436 0.869363 218.646 0.957194 218.822 1.13286C218.998 1.30852 219.086 1.51898 219.086 1.76425C219.086 1.92665 219.044 2.0758 218.961 2.21169C218.882 2.34758 218.774 2.45696 218.638 2.53982C218.506 2.61936 218.356 2.65914 218.191 2.65914ZM229.046 2.65914C228.801 2.65914 228.59 2.5713 228.415 2.39564C228.239 2.21998 228.151 2.00951 228.151 1.76425C228.151 1.51898 228.239 1.30852 228.415 1.13286C228.59 0.957194 228.801 0.869363 229.046 0.869363C229.291 0.869363 229.502 0.957194 229.678 1.13286C229.853 1.30852 229.941 1.51898 229.941 1.76425C229.941 1.92665 229.9 2.0758 229.817 2.21169C229.737 2.34758 229.629 2.45696 229.494 2.53982C229.361 2.61936 229.212 2.65914 229.046 2.65914ZM239.902 2.65914C239.656 2.65914 239.446 2.5713 239.27 2.39564C239.095 2.21998 239.007 2.00951 239.007 1.76425C239.007 1.51898 239.095 1.30852 239.27 1.13286C239.446 0.957194 239.656 0.869363 239.902 0.869363C240.147 0.869363 240.357 0.957194 240.533 1.13286C240.709 1.30852 240.797 1.51898 240.797 1.76425C240.797 1.92665 240.755 2.0758 240.672 2.21169C240.593 2.34758 240.485 2.45696 240.349 2.53982C240.217 2.61936 240.067 2.65914 239.902 2.65914ZM250.757 2.65914C250.512 2.65914 250.301 2.5713 250.126 2.39564C249.95 2.21998 249.862 2.00951 249.862 1.76425C249.862 1.51898 249.95 1.30852 250.126 1.13286C250.301 0.957194 250.512 0.869363 250.757 0.869363C251.002 0.869363 251.213 0.957194 251.388 1.13286C251.564 1.30852 251.652 1.51898 251.652 1.76425C251.652 1.92665 251.611 2.0758 251.528 2.21169C251.448 2.34758 251.34 2.45696 251.205 2.53982C251.072 2.61936 250.923 2.65914 250.757 2.65914ZM261.613 2.65914C261.367 2.65914 261.157 2.5713 260.981 2.39564C260.806 2.21998 260.718 2.00951 260.718 1.76425C260.718 1.51898 260.806 1.30852 260.981 1.13286C261.157 0.957194 261.367 0.869363 261.613 0.869363C261.858 0.869363 262.068 0.957194 262.244 1.13286C262.42 1.30852 262.507 1.51898 262.507 1.76425C262.507 1.92665 262.466 2.0758 262.383 2.21169C262.304 2.34758 262.196 2.45696 262.06 2.53982C261.927 2.61936 261.778 2.65914 261.613 2.65914ZM272.468 2.65914C272.223 2.65914 272.012 2.5713 271.837 2.39564C271.661 2.21998 271.573 2.00951 271.573 1.76425C271.573 1.51898 271.661 1.30852 271.837 1.13286C272.012 0.957194 272.223 0.869363 272.468 0.869363C272.713 0.869363 272.924 0.957194 273.099 1.13286C273.275 1.30852 273.363 1.51898 273.363 1.76425C273.363 1.92665 273.321 2.0758 273.239 2.21169C273.159 2.34758 273.051 2.45696 272.915 2.53982C272.783 2.61936 272.634 2.65914 272.468 2.65914ZM283.324 2.65914C283.078 2.65914 282.868 2.5713 282.692 2.39564C282.516 2.21998 282.429 2.00951 282.429 1.76425C282.429 1.51898 282.516 1.30852 282.692 1.13286C282.868 0.957194 283.078 0.869363 283.324 0.869363C283.569 0.869363 283.779 0.957194 283.955 1.13286C284.131 1.30852 284.218 1.51898 284.218 1.76425C284.218 1.92665 284.177 2.0758 284.094 2.21169C284.015 2.34758 283.907 2.45696 283.771 2.53982C283.638 2.61936 283.489 2.65914 283.324 2.65914ZM294.179 2.65914C293.934 2.65914 293.723 2.5713 293.548 2.39564C293.372 2.21998 293.284 2.00951 293.284 1.76425C293.284 1.51898 293.372 1.30852 293.548 1.13286C293.723 0.957194 293.934 0.869363 294.179 0.869363C294.424 0.869363 294.635 0.957194 294.81 1.13286C294.986 1.30852 295.074 1.51898 295.074 1.76425C295.074 1.92665 295.032 2.0758 294.95 2.21169C294.87 2.34758 294.762 2.45696 294.626 2.53982C294.494 2.61936 294.345 2.65914 294.179 2.65914ZM305.034 2.65914C304.789 2.65914 304.579 2.5713 304.403 2.39564C304.227 2.21998 304.14 2.00951 304.14 1.76425C304.14 1.51898 304.227 1.30852 304.403 1.13286C304.579 0.957194 304.789 0.869363 305.034 0.869363C305.28 0.869363 305.49 0.957194 305.666 1.13286C305.842 1.30852 305.929 1.51898 305.929 1.76425C305.929 1.92665 305.888 2.0758 305.805 2.21169C305.725 2.34758 305.618 2.45696 305.482 2.53982C305.349 2.61936 305.2 2.65914 305.034 2.65914ZM315.89 2.65914C315.645 2.65914 315.434 2.5713 315.259 2.39564C315.083 2.21998 314.995 2.00951 314.995 1.76425C314.995 1.51898 315.083 1.30852 315.259 1.13286C315.434 0.957194 315.645 0.869363 315.89 0.869363C316.135 0.869363 316.346 0.957194 316.521 1.13286C316.697 1.30852 316.785 1.51898 316.785 1.76425C316.785 1.92665 316.743 2.0758 316.661 2.21169C316.581 2.34758 316.473 2.45696 316.337 2.53982C316.205 2.61936 316.056 2.65914 315.89 2.65914ZM326.745 2.65914C326.5 2.65914 326.29 2.5713 326.114 2.39564C325.938 2.21998 325.85 2.00951 325.85 1.76425C325.85 1.51898 325.938 1.30852 326.114 1.13286C326.29 0.957194 326.5 0.869363 326.745 0.869363C326.991 0.869363 327.201 0.957194 327.377 1.13286C327.552 1.30852 327.64 1.51898 327.64 1.76425C327.64 1.92665 327.599 2.0758 327.516 2.21169C327.436 2.34758 327.329 2.45696 327.193 2.53982C327.06 2.61936 326.911 2.65914 326.745 2.65914ZM337.601 2.65914C337.356 2.65914 337.145 2.5713 336.969 2.39564C336.794 2.21998 336.706 2.00951 336.706 1.76425C336.706 1.51898 336.794 1.30852 336.969 1.13286C337.145 0.957194 337.356 0.869363 337.601 0.869363C337.846 0.869363 338.057 0.957194 338.232 1.13286C338.408 1.30852 338.496 1.51898 338.496 1.76425C338.496 1.92665 338.454 2.0758 338.371 2.21169C338.292 2.34758 338.184 2.45696 338.048 2.53982C337.916 2.61936 337.767 2.65914 337.601 2.65914ZM348.456 2.65914C348.211 2.65914 348.001 2.5713 347.825 2.39564C347.649 2.21998 347.561 2.00951 347.561 1.76425C347.561 1.51898 347.649 1.30852 347.825 1.13286C348.001 0.957194 348.211 0.869363 348.456 0.869363C348.702 0.869363 348.912 0.957194 349.088 1.13286C349.263 1.30852 349.351 1.51898 349.351 1.76425C349.351 1.92665 349.31 2.0758 349.227 2.21169C349.147 2.34758 349.04 2.45696 348.904 2.53982C348.771 2.61936 348.622 2.65914 348.456 2.65914ZM359.312 2.65914C359.067 2.65914 358.856 2.5713 358.68 2.39564C358.505 2.21998 358.417 2.00951 358.417 1.76425C358.417 1.51898 358.505 1.30852 358.68 1.13286C358.856 0.957194 359.067 0.869363 359.312 0.869363C359.557 0.869363 359.768 0.957194 359.943 1.13286C360.119 1.30852 360.207 1.51898 360.207 1.76425C360.207 1.92665 360.165 2.0758 360.082 2.21169C360.003 2.34758 359.895 2.45696 359.759 2.53982C359.627 2.61936 359.478 2.65914 359.312 2.65914ZM370.167 2.65914C369.922 2.65914 369.712 2.5713 369.536 2.39564C369.36 2.21998 369.272 2.00951 369.272 1.76425C369.272 1.51898 369.36 1.30852 369.536 1.13286C369.712 0.957194 369.922 0.869363 370.167 0.869363C370.413 0.869363 370.623 0.957194 370.799 1.13286C370.974 1.30852 371.062 1.51898 371.062 1.76425C371.062 1.92665 371.021 2.0758 370.938 2.21169C370.858 2.34758 370.751 2.45696 370.615 2.53982C370.482 2.61936 370.333 2.65914 370.167 2.65914ZM381.023 2.65914C380.777 2.65914 380.567 2.5713 380.391 2.39564C380.216 2.21998 380.128 2.00951 380.128 1.76425C380.128 1.51898 380.216 1.30852 380.391 1.13286C380.567 0.957194 380.777 0.869363 381.023 0.869363C381.268 0.869363 381.478 0.957194 381.654 1.13286C381.83 1.30852 381.918 1.51898 381.918 1.76425C381.918 1.92665 381.876 2.0758 381.793 2.21169C381.714 2.34758 381.606 2.45696 381.47 2.53982C381.338 2.61936 381.188 2.65914 381.023 2.65914ZM391.878 2.65914C391.633 2.65914 391.422 2.5713 391.247 2.39564C391.071 2.21998 390.983 2.00951 390.983 1.76425C390.983 1.51898 391.071 1.30852 391.247 1.13286C391.422 0.957194 391.633 0.869363 391.878 0.869363C392.123 0.869363 392.334 0.957194 392.51 1.13286C392.685 1.30852 392.773 1.51898 392.773 1.76425C392.773 1.92665 392.732 2.0758 392.649 2.21169C392.569 2.34758 392.462 2.45696 392.326 2.53982C392.193 2.61936 392.044 2.65914 391.878 2.65914ZM402.734 2.65914C402.488 2.65914 402.278 2.5713 402.102 2.39564C401.927 2.21998 401.839 2.00951 401.839 1.76425C401.839 1.51898 401.927 1.30852 402.102 1.13286C402.278 0.957194 402.488 0.869363 402.734 0.869363C402.979 0.869363 403.189 0.957194 403.365 1.13286C403.541 1.30852 403.629 1.51898 403.629 1.76425C403.629 1.92665 403.587 2.0758 403.504 2.21169C403.425 2.34758 403.317 2.45696 403.181 2.53982C403.049 2.61936 402.899 2.65914 402.734 2.65914ZM413.589 2.65914C413.344 2.65914 413.133 2.5713 412.958 2.39564C412.782 2.21998 412.694 2.00951 412.694 1.76425C412.694 1.51898 412.782 1.30852 412.958 1.13286C413.133 0.957194 413.344 0.869363 413.589 0.869363C413.834 0.869363 414.045 0.957194 414.221 1.13286C414.396 1.30852 414.484 1.51898 414.484 1.76425C414.484 1.92665 414.443 2.0758 414.36 2.21169C414.28 2.34758 414.172 2.45696 414.037 2.53982C413.904 2.61936 413.755 2.65914 413.589 2.65914ZM424.445 2.65914C424.199 2.65914 423.989 2.5713 423.813 2.39564C423.638 2.21998 423.55 2.00951 423.55 1.76425C423.55 1.51898 423.638 1.30852 423.813 1.13286C423.989 0.957194 424.199 0.869363 424.445 0.869363C424.69 0.869363 424.9 0.957194 425.076 1.13286C425.252 1.30852 425.339 1.51898 425.339 1.76425C425.339 1.92665 425.298 2.0758 425.215 2.21169C425.136 2.34758 425.028 2.45696 424.892 2.53982C424.759 2.61936 424.61 2.65914 424.445 2.65914ZM435.3 2.65914C435.055 2.65914 434.844 2.5713 434.669 2.39564C434.493 2.21998 434.405 2.00951 434.405 1.76425C434.405 1.51898 434.493 1.30852 434.669 1.13286C434.844 0.957194 435.055 0.869363 435.3 0.869363C435.545 0.869363 435.756 0.957194 435.931 1.13286C436.107 1.30852 436.195 1.51898 436.195 1.76425C436.195 1.92665 436.154 2.0758 436.071 2.21169C435.991 2.34758 435.883 2.45696 435.748 2.53982C435.615 2.61936 435.466 2.65914 435.3 2.65914ZM446.156 2.65914C445.91 2.65914 445.7 2.5713 445.524 2.39564C445.348 2.21998 445.261 2.00951 445.261 1.76425C445.261 1.51898 445.348 1.30852 445.524 1.13286C445.7 0.957194 445.91 0.869363 446.156 0.869363C446.401 0.869363 446.611 0.957194 446.787 1.13286C446.963 1.30852 447.05 1.51898 447.05 1.76425C447.05 1.92665 447.009 2.0758 446.926 2.21169C446.847 2.34758 446.739 2.45696 446.603 2.53982C446.47 2.61936 446.321 2.65914 446.156 2.65914ZM457.011 2.65914C456.766 2.65914 456.555 2.5713 456.38 2.39564C456.204 2.21998 456.116 2.00951 456.116 1.76425C456.116 1.51898 456.204 1.30852 456.38 1.13286C456.555 0.957194 456.766 0.869363 457.011 0.869363C457.256 0.869363 457.467 0.957194 457.642 1.13286C457.818 1.30852 457.906 1.51898 457.906 1.76425C457.906 1.92665 457.864 2.0758 457.782 2.21169C457.702 2.34758 457.594 2.45696 457.458 2.53982C457.326 2.61936 457.177 2.65914 457.011 2.65914ZM467.866 2.65914C467.621 2.65914 467.411 2.5713 467.235 2.39564C467.059 2.21998 466.972 2.00951 466.972 1.76425C466.972 1.51898 467.059 1.30852 467.235 1.13286C467.411 0.957194 467.621 0.869363 467.866 0.869363C468.112 0.869363 468.322 0.957194 468.498 1.13286C468.674 1.30852 468.761 1.51898 468.761 1.76425C468.761 1.92665 468.72 2.0758 468.637 2.21169C468.558 2.34758 468.45 2.45696 468.314 2.53982C468.181 2.61936 468.032 2.65914 467.866 2.65914ZM478.722 2.65914C478.477 2.65914 478.266 2.5713 478.091 2.39564C477.915 2.21998 477.827 2.00951 477.827 1.76425C477.827 1.51898 477.915 1.30852 478.091 1.13286C478.266 0.957194 478.477 0.869363 478.722 0.869363C478.967 0.869363 479.178 0.957194 479.353 1.13286C479.529 1.30852 479.617 1.51898 479.617 1.76425C479.617 1.92665 479.575 2.0758 479.493 2.21169C479.413 2.34758 479.305 2.45696 479.169 2.53982C479.037 2.61936 478.888 2.65914 478.722 2.65914ZM489.577 2.65914C489.332 2.65914 489.122 2.5713 488.946 2.39564C488.77 2.21998 488.683 2.00951 488.683 1.76425C488.683 1.51898 488.77 1.30852 488.946 1.13286C489.122 0.957194 489.332 0.869363 489.577 0.869363C489.823 0.869363 490.033 0.957194 490.209 1.13286C490.384 1.30852 490.472 1.51898 490.472 1.76425C490.472 1.92665 490.431 2.0758 490.348 2.21169C490.268 2.34758 490.161 2.45696 490.025 2.53982C489.892 2.61936 489.743 2.65914 489.577 2.65914ZM500.433 2.65914C500.188 2.65914 499.977 2.5713 499.801 2.39564C499.626 2.21998 499.538 2.00951 499.538 1.76425C499.538 1.51898 499.626 1.30852 499.801 1.13286C499.977 0.957194 500.188 0.869363 500.433 0.869363C500.678 0.869363 500.889 0.957194 501.064 1.13286C501.24 1.30852 501.328 1.51898 501.328 1.76425C501.328 1.92665 501.286 2.0758 501.203 2.21169C501.124 2.34758 501.016 2.45696 500.88 2.53982C500.748 2.61936 500.599 2.65914 500.433 2.65914ZM511.288 2.65914C511.043 2.65914 510.833 2.5713 510.657 2.39564C510.481 2.21998 510.393 2.00951 510.393 1.76425C510.393 1.51898 510.481 1.30852 510.657 1.13286C510.833 0.957194 511.043 0.869363 511.288 0.869363C511.534 0.869363 511.744 0.957194 511.92 1.13286C512.095 1.30852 512.183 1.51898 512.183 1.76425C512.183 1.92665 512.142 2.0758 512.059 2.21169C511.979 2.34758 511.872 2.45696 511.736 2.53982C511.603 2.61936 511.454 2.65914 511.288 2.65914ZM522.144 2.65914C521.899 2.65914 521.688 2.5713 521.512 2.39564C521.337 2.21998 521.249 2.00951 521.249 1.76425C521.249 1.51898 521.337 1.30852 521.512 1.13286C521.688 0.957194 521.899 0.869363 522.144 0.869363C522.389 0.869363 522.6 0.957194 522.775 1.13286C522.951 1.30852 523.039 1.51898 523.039 1.76425C523.039 1.92665 522.997 2.0758 522.914 2.21169C522.835 2.34758 522.727 2.45696 522.591 2.53982C522.459 2.61936 522.31 2.65914 522.144 2.65914ZM532.999 2.65914C532.754 2.65914 532.544 2.5713 532.368 2.39564C532.192 2.21998 532.104 2.00951 532.104 1.76425C532.104 1.51898 532.192 1.30852 532.368 1.13286C532.544 0.957194 532.754 0.869363 532.999 0.869363C533.245 0.869363 533.455 0.957194 533.631 1.13286C533.806 1.30852 533.894 1.51898 533.894 1.76425C533.894 1.92665 533.853 2.0758 533.77 2.21169C533.69 2.34758 533.583 2.45696 533.447 2.53982C533.314 2.61936 533.165 2.65914 532.999 2.65914ZM543.855 2.65914C543.609 2.65914 543.399 2.5713 543.223 2.39564C543.048 2.21998 542.96 2.00951 542.96 1.76425C542.96 1.51898 543.048 1.30852 543.223 1.13286C543.399 0.957194 543.609 0.869363 543.855 0.869363C544.1 0.869363 544.31 0.957194 544.486 1.13286C544.662 1.30852 544.75 1.51898 544.75 1.76425C544.75 1.92665 544.708 2.0758 544.625 2.21169C544.546 2.34758 544.438 2.45696 544.302 2.53982C544.17 2.61936 544.02 2.65914 543.855 2.65914ZM554.71 2.65914C554.465 2.65914 554.254 2.5713 554.079 2.39564C553.903 2.21998 553.815 2.00951 553.815 1.76425C553.815 1.51898 553.903 1.30852 554.079 1.13286C554.254 0.957194 554.465 0.869363 554.71 0.869363C554.955 0.869363 555.166 0.957194 555.342 1.13286C555.517 1.30852 555.605 1.51898 555.605 1.76425C555.605 1.92665 555.564 2.0758 555.481 2.21169C555.401 2.34758 555.294 2.45696 555.158 2.53982C555.025 2.61936 554.876 2.65914 554.71 2.65914ZM565.566 2.65914C565.32 2.65914 565.11 2.5713 564.934 2.39564C564.759 2.21998 564.671 2.00951 564.671 1.76425C564.671 1.51898 564.759 1.30852 564.934 1.13286C565.11 0.957194 565.32 0.869363 565.566 0.869363C565.811 0.869363 566.021 0.957194 566.197 1.13286C566.373 1.30852 566.461 1.51898 566.461 1.76425C566.461 1.92665 566.419 2.0758 566.336 2.21169C566.257 2.34758 566.149 2.45696 566.013 2.53982C565.881 2.61936 565.731 2.65914 565.566 2.65914ZM576.421 2.65914C576.176 2.65914 575.965 2.5713 575.79 2.39564C575.614 2.21998 575.526 2.00951 575.526 1.76425C575.526 1.51898 575.614 1.30852 575.79 1.13286C575.965 0.957194 576.176 0.869363 576.421 0.869363C576.666 0.869363 576.877 0.957194 577.053 1.13286C577.228 1.30852 577.316 1.51898 577.316 1.76425C577.316 1.92665 577.275 2.0758 577.192 2.21169C577.112 2.34758 577.004 2.45696 576.869 2.53982C576.736 2.61936 576.587 2.65914 576.421 2.65914ZM587.277 2.65914C587.031 2.65914 586.821 2.5713 586.645 2.39564C586.47 2.21998 586.382 2.00951 586.382 1.76425C586.382 1.51898 586.47 1.30852 586.645 1.13286C586.821 0.957194 587.031 0.869363 587.277 0.869363C587.522 0.869363 587.732 0.957194 587.908 1.13286C588.084 1.30852 588.172 1.51898 588.172 1.76425C588.172 1.92665 588.13 2.0758 588.047 2.21169C587.968 2.34758 587.86 2.45696 587.724 2.53982C587.592 2.61936 587.442 2.65914 587.277 2.65914ZM598.132 2.65914C597.887 2.65914 597.676 2.5713 597.501 2.39564C597.325 2.21998 597.237 2.00951 597.237 1.76425C597.237 1.51898 597.325 1.30852 597.501 1.13286C597.676 0.957194 597.887 0.869363 598.132 0.869363C598.377 0.869363 598.588 0.957194 598.763 1.13286C598.939 1.30852 599.027 1.51898 599.027 1.76425C599.027 1.92665 598.986 2.0758 598.903 2.21169C598.823 2.34758 598.715 2.45696 598.58 2.53982C598.447 2.61936 598.298 2.65914 598.132 2.65914ZM608.988 2.65914C608.742 2.65914 608.532 2.5713 608.356 2.39564C608.181 2.21998 608.093 2.00951 608.093 1.76425C608.093 1.51898 608.181 1.30852 608.356 1.13286C608.532 0.957194 608.742 0.869363 608.988 0.869363C609.233 0.869363 609.443 0.957194 609.619 1.13286C609.795 1.30852 609.882 1.51898 609.882 1.76425C609.882 1.92665 609.841 2.0758 609.758 2.21169C609.679 2.34758 609.571 2.45696 609.435 2.53982C609.302 2.61936 609.153 2.65914 608.988 2.65914ZM619.843 2.65914C619.598 2.65914 619.387 2.5713 619.212 2.39564C619.036 2.21998 618.948 2.00951 618.948 1.76425C618.948 1.51898 619.036 1.30852 619.212 1.13286C619.387 0.957194 619.598 0.869363 619.843 0.869363C620.088 0.869363 620.299 0.957194 620.474 1.13286C620.65 1.30852 620.738 1.51898 620.738 1.76425C620.738 1.92665 620.696 2.0758 620.614 2.21169C620.534 2.34758 620.426 2.45696 620.29 2.53982C620.158 2.61936 620.009 2.65914 619.843 2.65914ZM630.699 2.65914C630.453 2.65914 630.243 2.5713 630.067 2.39564C629.891 2.21998 629.804 2.00951 629.804 1.76425C629.804 1.51898 629.891 1.30852 630.067 1.13286C630.243 0.957194 630.453 0.869363 630.699 0.869363C630.944 0.869363 631.154 0.957194 631.33 1.13286C631.506 1.30852 631.593 1.51898 631.593 1.76425C631.593 1.92665 631.552 2.0758 631.469 2.21169C631.39 2.34758 631.282 2.45696 631.146 2.53982C631.013 2.61936 630.864 2.65914 630.699 2.65914ZM641.554 2.65914C641.309 2.65914 641.098 2.5713 640.923 2.39564C640.747 2.21998 640.659 2.00951 640.659 1.76425C640.659 1.51898 640.747 1.30852 640.923 1.13286C641.098 0.957194 641.309 0.869363 641.554 0.869363C641.799 0.869363 642.01 0.957194 642.185 1.13286C642.361 1.30852 642.449 1.51898 642.449 1.76425C642.449 1.92665 642.407 2.0758 642.325 2.21169C642.245 2.34758 642.137 2.45696 642.001 2.53982C641.869 2.61936 641.72 2.65914 641.554 2.65914ZM652.409 2.65914C652.164 2.65914 651.954 2.5713 651.778 2.39564C651.602 2.21998 651.515 2.00951 651.515 1.76425C651.515 1.51898 651.602 1.30852 651.778 1.13286C651.954 0.957194 652.164 0.869363 652.409 0.869363C652.655 0.869363 652.865 0.957194 653.041 1.13286C653.217 1.30852 653.304 1.51898 653.304 1.76425C653.304 1.92665 653.263 2.0758 653.18 2.21169C653.1 2.34758 652.993 2.45696 652.857 2.53982C652.724 2.61936 652.575 2.65914 652.409 2.65914ZM663.265 2.65914C663.02 2.65914 662.809 2.5713 662.634 2.39564C662.458 2.21998 662.37 2.00951 662.37 1.76425C662.37 1.51898 662.458 1.30852 662.634 1.13286C662.809 0.957194 663.02 0.869363 663.265 0.869363C663.51 0.869363 663.721 0.957194 663.896 1.13286C664.072 1.30852 664.16 1.51898 664.16 1.76425C664.16 1.92665 664.118 2.0758 664.036 2.21169C663.956 2.34758 663.848 2.45696 663.712 2.53982C663.58 2.61936 663.431 2.65914 663.265 2.65914ZM674.12 2.65914C673.875 2.65914 673.665 2.5713 673.489 2.39564C673.313 2.21998 673.225 2.00951 673.225 1.76425C673.225 1.51898 673.313 1.30852 673.489 1.13286C673.665 0.957194 673.875 0.869363 674.12 0.869363C674.366 0.869363 674.576 0.957194 674.752 1.13286C674.927 1.30852 675.015 1.51898 675.015 1.76425C675.015 1.92665 674.974 2.0758 674.891 2.21169C674.811 2.34758 674.704 2.45696 674.568 2.53982C674.435 2.61936 674.286 2.65914 674.12 2.65914ZM684.976 2.65914C684.731 2.65914 684.52 2.5713 684.344 2.39564C684.169 2.21998 684.081 2.00951 684.081 1.76425C684.081 1.51898 684.169 1.30852 684.344 1.13286C684.52 0.957194 684.731 0.869363 684.976 0.869363C685.221 0.869363 685.432 0.957194 685.607 1.13286C685.783 1.30852 685.871 1.51898 685.871 1.76425C685.871 1.92665 685.829 2.0758 685.746 2.21169C685.667 2.34758 685.559 2.45696 685.423 2.53982C685.291 2.61936 685.142 2.65914 684.976 2.65914ZM695.831 2.65914C695.586 2.65914 695.376 2.5713 695.2 2.39564C695.024 2.21998 694.936 2.00951 694.936 1.76425C694.936 1.51898 695.024 1.30852 695.2 1.13286C695.376 0.957194 695.586 0.869363 695.831 0.869363C696.077 0.869363 696.287 0.957194 696.463 1.13286C696.638 1.30852 696.726 1.51898 696.726 1.76425C696.726 1.92665 696.685 2.0758 696.602 2.21169C696.522 2.34758 696.415 2.45696 696.279 2.53982C696.146 2.61936 695.997 2.65914 695.831 2.65914ZM706.687 2.65914C706.442 2.65914 706.231 2.5713 706.055 2.39564C705.88 2.21998 705.792 2.00951 705.792 1.76425C705.792 1.51898 705.88 1.30852 706.055 1.13286C706.231 0.957194 706.442 0.869363 706.687 0.869363C706.932 0.869363 707.143 0.957194 707.318 1.13286C707.494 1.30852 707.582 1.51898 707.582 1.76425C707.582 1.92665 707.54 2.0758 707.457 2.21169C707.378 2.34758 707.27 2.45696 707.134 2.53982C707.002 2.61936 706.853 2.65914 706.687 2.65914ZM717.542 2.65914C717.297 2.65914 717.087 2.5713 716.911 2.39564C716.735 2.21998 716.647 2.00951 716.647 1.76425C716.647 1.51898 716.735 1.30852 716.911 1.13286C717.087 0.957194 717.297 0.869363 717.542 0.869363C717.788 0.869363 717.998 0.957194 718.174 1.13286C718.349 1.30852 718.437 1.51898 718.437 1.76425C718.437 1.92665 718.396 2.0758 718.313 2.21169C718.233 2.34758 718.126 2.45696 717.99 2.53982C717.857 2.61936 717.708 2.65914 717.542 2.65914ZM728.398 2.65914C728.152 2.65914 727.942 2.5713 727.766 2.39564C727.591 2.21998 727.503 2.00951 727.503 1.76425C727.503 1.51898 727.591 1.30852 727.766 1.13286C727.942 0.957194 728.152 0.869363 728.398 0.869363C728.643 0.869363 728.853 0.957194 729.029 1.13286C729.205 1.30852 729.293 1.51898 729.293 1.76425C729.293 1.92665 729.251 2.0758 729.168 2.21169C729.089 2.34758 728.981 2.45696 728.845 2.53982C728.713 2.61936 728.563 2.65914 728.398 2.65914ZM739.253 2.65914C739.008 2.65914 738.797 2.5713 738.622 2.39564C738.446 2.21998 738.358 2.00951 738.358 1.76425C738.358 1.51898 738.446 1.30852 738.622 1.13286C738.797 0.957194 739.008 0.869363 739.253 0.869363C739.498 0.869363 739.709 0.957194 739.885 1.13286C740.06 1.30852 740.148 1.51898 740.148 1.76425C740.148 1.92665 740.107 2.0758 740.024 2.21169C739.944 2.34758 739.837 2.45696 739.701 2.53982C739.568 2.61936 739.419 2.65914 739.253 2.65914ZM750.109 2.65914C749.863 2.65914 749.653 2.5713 749.477 2.39564C749.302 2.21998 749.214 2.00951 749.214 1.76425C749.214 1.51898 749.302 1.30852 749.477 1.13286C749.653 0.957194 749.863 0.869363 750.109 0.869363C750.354 0.869363 750.564 0.957194 750.74 1.13286C750.916 1.30852 751.004 1.51898 751.004 1.76425C751.004 1.92665 750.962 2.0758 750.879 2.21169C750.8 2.34758 750.692 2.45696 750.556 2.53982C750.424 2.61936 750.274 2.65914 750.109 2.65914ZM760.964 2.65914C760.719 2.65914 760.508 2.5713 760.333 2.39564C760.157 2.21998 760.069 2.00951 760.069 1.76425C760.069 1.51898 760.157 1.30852 760.333 1.13286C760.508 0.957194 760.719 0.869363 760.964 0.869363C761.209 0.869363 761.42 0.957194 761.596 1.13286C761.771 1.30852 761.859 1.51898 761.859 1.76425C761.859 1.92665 761.818 2.0758 761.735 2.21169C761.655 2.34758 761.547 2.45696 761.412 2.53982C761.279 2.61936 761.13 2.65914 760.964 2.65914ZM771.82 2.65914C771.574 2.65914 771.364 2.5713 771.188 2.39564C771.013 2.21998 770.925 2.00951 770.925 1.76425C770.925 1.51898 771.013 1.30852 771.188 1.13286C771.364 0.957194 771.574 0.869363 771.82 0.869363C772.065 0.869363 772.275 0.957194 772.451 1.13286C772.627 1.30852 772.714 1.51898 772.714 1.76425C772.714 1.92665 772.673 2.0758 772.59 2.21169C772.511 2.34758 772.403 2.45696 772.267 2.53982C772.134 2.61936 771.985 2.65914 771.82 2.65914ZM782.675 2.65914C782.43 2.65914 782.219 2.5713 782.044 2.39564C781.868 2.21998 781.78 2.00951 781.78 1.76425C781.78 1.51898 781.868 1.30852 782.044 1.13286C782.219 0.957194 782.43 0.869363 782.675 0.869363C782.92 0.869363 783.131 0.957194 783.306 1.13286C783.482 1.30852 783.57 1.51898 783.57 1.76425C783.57 1.92665 783.529 2.0758 783.446 2.21169C783.366 2.34758 783.258 2.45696 783.123 2.53982C782.99 2.61936 782.841 2.65914 782.675 2.65914ZM793.531 2.65914C793.285 2.65914 793.075 2.5713 792.899 2.39564C792.723 2.21998 792.636 2.00951 792.636 1.76425C792.636 1.51898 792.723 1.30852 792.899 1.13286C793.075 0.957194 793.285 0.869363 793.531 0.869363C793.776 0.869363 793.986 0.957194 794.162 1.13286C794.338 1.30852 794.425 1.51898 794.425 1.76425C794.425 1.92665 794.384 2.0758 794.301 2.21169C794.222 2.34758 794.114 2.45696 793.978 2.53982C793.845 2.61936 793.696 2.65914 793.531 2.65914ZM804.386 2.65914C804.141 2.65914 803.93 2.5713 803.755 2.39564C803.579 2.21998 803.491 2.00951 803.491 1.76425C803.491 1.51898 803.579 1.30852 803.755 1.13286C803.93 0.957194 804.141 0.869363 804.386 0.869363C804.631 0.869363 804.842 0.957194 805.017 1.13286C805.193 1.30852 805.281 1.51898 805.281 1.76425C805.281 1.92665 805.239 2.0758 805.157 2.21169C805.077 2.34758 804.969 2.45696 804.833 2.53982C804.701 2.61936 804.552 2.65914 804.386 2.65914ZM815.241 2.65914C814.996 2.65914 814.786 2.5713 814.61 2.39564C814.434 2.21998 814.347 2.00951 814.347 1.76425C814.347 1.51898 814.434 1.30852 814.61 1.13286C814.786 0.957194 814.996 0.869363 815.241 0.869363C815.487 0.869363 815.697 0.957194 815.873 1.13286C816.049 1.30852 816.136 1.51898 816.136 1.76425C816.136 1.92665 816.095 2.0758 816.012 2.21169C815.933 2.34758 815.825 2.45696 815.689 2.53982C815.556 2.61936 815.407 2.65914 815.241 2.65914ZM826.097 2.65914C825.852 2.65914 825.641 2.5713 825.466 2.39564C825.29 2.21998 825.202 2.00951 825.202 1.76425C825.202 1.51898 825.29 1.30852 825.466 1.13286C825.641 0.957194 825.852 0.869363 826.097 0.869363C826.342 0.869363 826.553 0.957194 826.728 1.13286C826.904 1.30852 826.992 1.51898 826.992 1.76425C826.992 1.92665 826.95 2.0758 826.868 2.21169C826.788 2.34758 826.68 2.45696 826.544 2.53982C826.412 2.61936 826.263 2.65914 826.097 2.65914ZM836.952 2.65914C836.707 2.65914 836.497 2.5713 836.321 2.39564C836.145 2.21998 836.058 2.00951 836.058 1.76425C836.058 1.51898 836.145 1.30852 836.321 1.13286C836.497 0.957194 836.707 0.869363 836.952 0.869363C837.198 0.869363 837.408 0.957194 837.584 1.13286C837.759 1.30852 837.847 1.51898 837.847 1.76425C837.847 1.92665 837.806 2.0758 837.723 2.21169C837.643 2.34758 837.536 2.45696 837.4 2.53982C837.267 2.61936 837.118 2.65914 836.952 2.65914ZM847.808 2.65914C847.563 2.65914 847.352 2.5713 847.176 2.39564C847.001 2.21998 846.913 2.00951 846.913 1.76425C846.913 1.51898 847.001 1.30852 847.176 1.13286C847.352 0.957194 847.563 0.869363 847.808 0.869363C848.053 0.869363 848.264 0.957194 848.439 1.13286C848.615 1.30852 848.703 1.51898 848.703 1.76425C848.703 1.92665 848.661 2.0758 848.578 2.21169C848.499 2.34758 848.391 2.45696 848.255 2.53982C848.123 2.61936 847.974 2.65914 847.808 2.65914ZM858.663 2.65914C858.418 2.65914 858.208 2.5713 858.032 2.39564C857.856 2.21998 857.768 2.00951 857.768 1.76425C857.768 1.51898 857.856 1.30852 858.032 1.13286C858.208 0.957194 858.418 0.869363 858.663 0.869363C858.909 0.869363 859.119 0.957194 859.295 1.13286C859.47 1.30852 859.558 1.51898 859.558 1.76425C859.558 1.92665 859.517 2.0758 859.434 2.21169C859.354 2.34758 859.247 2.45696 859.111 2.53982C858.978 2.61936 858.829 2.65914 858.663 2.65914ZM869.519 2.65914C869.274 2.65914 869.063 2.5713 868.887 2.39564C868.712 2.21998 868.624 2.00951 868.624 1.76425C868.624 1.51898 868.712 1.30852 868.887 1.13286C869.063 0.957194 869.274 0.869363 869.519 0.869363C869.764 0.869363 869.975 0.957194 870.15 1.13286C870.326 1.30852 870.414 1.51898 870.414 1.76425C870.414 1.92665 870.372 2.0758 870.289 2.21169C870.21 2.34758 870.102 2.45696 869.966 2.53982C869.834 2.61936 869.685 2.65914 869.519 2.65914ZM880.374 2.65914C880.129 2.65914 879.919 2.5713 879.743 2.39564C879.567 2.21998 879.479 2.00951 879.479 1.76425C879.479 1.51898 879.567 1.30852 879.743 1.13286C879.919 0.957194 880.129 0.869363 880.374 0.869363C880.62 0.869363 880.83 0.957194 881.006 1.13286C881.181 1.30852 881.269 1.51898 881.269 1.76425C881.269 1.92665 881.228 2.0758 881.145 2.21169C881.065 2.34758 880.958 2.45696 880.822 2.53982C880.689 2.61936 880.54 2.65914 880.374 2.65914ZM891.23 2.65914C890.984 2.65914 890.774 2.5713 890.598 2.39564C890.423 2.21998 890.335 2.00951 890.335 1.76425C890.335 1.51898 890.423 1.30852 890.598 1.13286C890.774 0.957194 890.984 0.869363 891.23 0.869363C891.475 0.869363 891.685 0.957194 891.861 1.13286C892.037 1.30852 892.125 1.51898 892.125 1.76425C892.125 1.92665 892.083 2.0758 892 2.21169C891.921 2.34758 891.813 2.45696 891.677 2.53982C891.545 2.61936 891.395 2.65914 891.23 2.65914ZM902.085 2.65914C901.84 2.65914 901.629 2.5713 901.454 2.39564C901.278 2.21998 901.19 2.00951 901.19 1.76425C901.19 1.51898 901.278 1.30852 901.454 1.13286C901.629 0.957194 901.84 0.869363 902.085 0.869363C902.33 0.869363 902.541 0.957194 902.717 1.13286C902.892 1.30852 902.98 1.51898 902.98 1.76425C902.98 1.92665 902.939 2.0758 902.856 2.21169C902.776 2.34758 902.669 2.45696 902.533 2.53982C902.4 2.61936 902.251 2.65914 902.085 2.65914ZM912.941 2.65914C912.695 2.65914 912.485 2.5713 912.309 2.39564C912.134 2.21998 912.046 2.00951 912.046 1.76425C912.046 1.51898 912.134 1.30852 912.309 1.13286C912.485 0.957194 912.695 0.869363 912.941 0.869363C913.186 0.869363 913.396 0.957194 913.572 1.13286C913.748 1.30852 913.836 1.51898 913.836 1.76425C913.836 1.92665 913.794 2.0758 913.711 2.21169C913.632 2.34758 913.524 2.45696 913.388 2.53982C913.256 2.61936 913.106 2.65914 912.941 2.65914ZM923.796 2.65914C923.551 2.65914 923.34 2.5713 923.165 2.39564C922.989 2.21998 922.901 2.00951 922.901 1.76425C922.901 1.51898 922.989 1.30852 923.165 1.13286C923.34 0.957194 923.551 0.869363 923.796 0.869363C924.041 0.869363 924.252 0.957194 924.428 1.13286C924.603 1.30852 924.691 1.51898 924.691 1.76425C924.691 1.92665 924.65 2.0758 924.567 2.21169C924.487 2.34758 924.379 2.45696 924.244 2.53982C924.111 2.61936 923.962 2.65914 923.796 2.65914ZM934.652 2.65914C934.406 2.65914 934.196 2.5713 934.02 2.39564C933.845 2.21998 933.757 2.00951 933.757 1.76425C933.757 1.51898 933.845 1.30852 934.02 1.13286C934.196 0.957194 934.406 0.869363 934.652 0.869363C934.897 0.869363 935.107 0.957194 935.283 1.13286C935.459 1.30852 935.547 1.51898 935.547 1.76425C935.547 1.92665 935.505 2.0758 935.422 2.21169C935.343 2.34758 935.235 2.45696 935.099 2.53982C934.967 2.61936 934.817 2.65914 934.652 2.65914ZM945.507 2.65914C945.262 2.65914 945.051 2.5713 944.876 2.39564C944.7 2.21998 944.612 2.00951 944.612 1.76425C944.612 1.51898 944.7 1.30852 944.876 1.13286C945.051 0.957194 945.262 0.869363 945.507 0.869363C945.752 0.869363 945.963 0.957194 946.138 1.13286C946.314 1.30852 946.402 1.51898 946.402 1.76425C946.402 1.92665 946.361 2.0758 946.278 2.21169C946.198 2.34758 946.09 2.45696 945.955 2.53982C945.822 2.61936 945.673 2.65914 945.507 2.65914ZM956.363 2.65914C956.117 2.65914 955.907 2.5713 955.731 2.39564C955.556 2.21998 955.468 2.00951 955.468 1.76425C955.468 1.51898 955.556 1.30852 955.731 1.13286C955.907 0.957194 956.117 0.869363 956.363 0.869363C956.608 0.869363 956.818 0.957194 956.994 1.13286C957.17 1.30852 957.257 1.51898 957.257 1.76425C957.257 1.92665 957.216 2.0758 957.133 2.21169C957.054 2.34758 956.946 2.45696 956.81 2.53982C956.677 2.61936 956.528 2.65914 956.363 2.65914ZM967.218 2.65914C966.973 2.65914 966.762 2.5713 966.587 2.39564C966.411 2.21998 966.323 2.00951 966.323 1.76425C966.323 1.51898 966.411 1.30852 966.587 1.13286C966.762 0.957194 966.973 0.869363 967.218 0.869363C967.463 0.869363 967.674 0.957194 967.849 1.13286C968.025 1.30852 968.113 1.51898 968.113 1.76425C968.113 1.92665 968.071 2.0758 967.989 2.21169C967.909 2.34758 967.801 2.45696 967.665 2.53982C967.533 2.61936 967.384 2.65914 967.218 2.65914ZM978.074 2.65914C977.828 2.65914 977.618 2.5713 977.442 2.39564C977.266 2.21998 977.179 2.00951 977.179 1.76425C977.179 1.51898 977.266 1.30852 977.442 1.13286C977.618 0.957194 977.828 0.869363 978.074 0.869363C978.319 0.869363 978.529 0.957194 978.705 1.13286C978.881 1.30852 978.968 1.51898 978.968 1.76425C978.968 1.92665 978.927 2.0758 978.844 2.21169C978.765 2.34758 978.657 2.45696 978.521 2.53982C978.388 2.61936 978.239 2.65914 978.074 2.65914Z" fill="#98A2B3"/>
</svg>
