<svg width="58" height="230" viewBox="0 0 58 230" fill="none" xmlns="http://www.w3.org/2000/svg">
<path fill-rule="evenodd" clip-rule="evenodd" d="M49 0.5C37.6782 0.5 28.5 9.6782 28.5 21V30V59V88V97C28.5 107.77 19.7696 116.5 9 116.5H0V117.5H9C19.7696 117.5 28.5 126.23 28.5 137V146V175V204V209C28.5 220.322 37.6782 229.5 49 229.5H58V228.5H49C38.2304 228.5 29.5 219.77 29.5 209V204V175V146V137C29.5 127.231 22.6672 119.058 13.5203 117C22.6672 114.942 29.5 106.769 29.5 97V88V59V30V21C29.5 10.2304 38.2304 1.5 49 1.5H58V0.5H49Z" fill="#98A2B3"/>
</svg>
