<svg width="30" height="30" viewBox="0 0 30 30" fill="none" xmlns="http://www.w3.org/2000/svg">
<path d="M12.8227 24.9589H17.6772C18.3209 24.9589 18.9383 24.7032 19.3935 24.248C19.8487 23.7928 20.1044 23.1754 20.1044 22.5317V21.3181C20.1044 20.9962 19.9766 20.6875 19.749 20.4599C19.5214 20.2323 19.2127 20.1045 18.8908 20.1045C18.5689 20.1045 18.2603 20.2323 18.0327 20.4599C17.8051 20.6875 17.6772 20.9962 17.6772 21.3181V22.5317H12.8227V21.3181C12.8227 20.9962 12.6949 20.6875 12.4673 20.4599C12.2397 20.2323 11.931 20.1045 11.6091 20.1045C11.2873 20.1045 10.9786 20.2323 10.751 20.4599C10.5234 20.6875 10.3955 20.9962 10.3955 21.3181V22.5317C10.3955 23.1754 10.6512 23.7928 11.1064 24.248C11.5616 24.7032 12.179 24.9589 12.8227 24.9589Z" fill="white"/>
<path d="M29.7497 16.0783L25.7266 4.00585C25.4043 3.03923 24.7861 2.19851 23.9595 1.60279C23.1329 1.00706 22.1398 0.686532 21.1209 0.686607H9.37917C8.36026 0.686532 7.36716 1.00706 6.54055 1.60279C5.71394 2.19851 5.09573 3.03923 4.7735 4.00585L0.75036 16.0783C0.734823 16.1429 0.72668 16.2091 0.726088 16.2755C0.706846 16.3368 0.693636 16.3998 0.686646 16.4636V23.7453C0.686646 25.3547 1.32596 26.8981 2.46394 28.0361C3.60193 29.1741 5.14537 29.8134 6.75472 29.8134H23.7453C25.3547 29.8134 26.8981 29.1741 28.0361 28.0361C29.1741 26.8981 29.8134 25.3547 29.8134 23.7453V16.4636C29.8064 16.3998 29.7932 16.3368 29.774 16.2755C29.7734 16.2091 29.7652 16.1429 29.7497 16.0783ZM7.07633 4.77346C7.23745 4.29015 7.54655 3.86979 7.95986 3.57193C8.37316 3.27407 8.86971 3.1138 9.37917 3.11384H21.1209C21.6304 3.1138 22.1269 3.27407 22.5402 3.57193C22.9535 3.86979 23.2626 4.29015 23.4237 4.77346L26.9159 15.25H3.58415L7.07633 4.77346ZM27.3862 23.7453C27.3862 24.7109 27.0026 25.637 26.3198 26.3198C25.637 27.0026 24.711 27.3862 23.7453 27.3862H6.75472C5.78911 27.3862 4.86305 27.0026 4.18026 26.3198C3.49747 25.637 3.11388 24.7109 3.11388 23.7453V17.6772H27.3862V23.7453Z" fill="white"/>
<path d="M9.18188 12.8228H21.318C21.6399 12.8228 21.9486 12.6949 22.1762 12.4673C22.4038 12.2397 22.5317 11.931 22.5317 11.6092C22.5317 11.2873 22.4038 10.9786 22.1762 10.751C21.9486 10.5234 21.6399 10.3955 21.318 10.3955H9.18188C8.86001 10.3955 8.55132 10.5234 8.32372 10.751C8.09612 10.9786 7.96826 11.2873 7.96826 11.6092C7.96826 11.931 8.09612 12.2397 8.32372 12.4673C8.55132 12.6949 8.86001 12.8228 9.18188 12.8228Z" fill="white"/>
<path d="M10.3955 7.96831H20.1044C20.4263 7.96831 20.735 7.84045 20.9626 7.61285C21.1902 7.38525 21.318 7.07656 21.318 6.75469C21.318 6.43282 21.1902 6.12413 20.9626 5.89654C20.735 5.66894 20.4263 5.54108 20.1044 5.54108H10.3955C10.0736 5.54108 9.76494 5.66894 9.53734 5.89654C9.30975 6.12413 9.18188 6.43282 9.18188 6.75469C9.18188 7.07656 9.30975 7.38525 9.53734 7.61285C9.76494 7.84045 10.0736 7.96831 10.3955 7.96831Z" fill="white"/>
</svg>
