<svg width="110" height="111" viewBox="0 0 110 111" fill="none" xmlns="http://www.w3.org/2000/svg">
<path d="M29.3507 34.8555C26.6921 34.8555 24.5352 37.0564 24.5352 39.7693C24.5352 41.3151 25.2475 42.7687 26.4614 43.7003L48.2917 60.4072C49.4354 61.2773 51.0004 61.2773 52.1441 60.4072L57.9027 56.0053C60.3004 49.8835 65.8984 45.4304 72.58 44.765L73.9745 43.7003C75.1884 42.7687 75.9007 41.3151 75.9007 39.7693C75.9007 37.0564 73.7437 34.8555 71.0852 34.8555H29.3507ZM54.0703 63.0279C51.783 64.7784 48.6529 64.7784 46.3655 63.0279L24.5352 46.321V67.6141C24.5352 71.2278 27.4144 74.1658 30.9558 74.1658H60.6716C58.1535 71.0537 56.6386 67.0511 56.6386 62.7003C56.6386 62.127 56.6687 61.564 56.7189 61.0009L54.0703 63.0279ZM88.7421 62.7003C88.7421 58.7906 87.22 55.0411 84.5108 52.2766C81.8015 49.512 78.127 47.9589 74.2955 47.9589C70.464 47.9589 66.7895 49.512 64.0802 52.2766C61.371 55.0411 59.8489 58.7906 59.8489 62.7003C59.8489 66.61 61.371 70.3595 64.0802 73.124C66.7895 75.8886 70.464 77.4417 74.2955 77.4417C78.127 77.4417 81.8015 75.8886 84.5108 73.124C87.22 70.3595 88.7421 66.61 88.7421 62.7003ZM81.0473 58.2676C81.6693 58.9023 81.6693 59.9465 81.0473 60.5812L73.824 67.9519C73.202 68.5866 72.1787 68.5866 71.5567 67.9519L67.5437 63.8571C66.9217 63.2224 66.9217 62.1782 67.5437 61.5435C68.1657 60.9088 69.189 60.9088 69.8111 61.5435L72.6903 64.4815L78.78 58.2676C79.402 57.6329 80.4253 57.6329 81.0473 58.2676Z" fill="white"/>
</svg>
